<?xml version="1.0" encoding="UTF-8"?>
<!DOCTYPE svg PUBLIC "-//W3C//DTD SVG 1.1//EN" "http://www.w3.org/Graphics/SVG/1.1/DTD/svg11.dtd">
<!-- Creator: CorelDRAW -->
<svg xmlns="http://www.w3.org/2000/svg" xml:space="preserve" width="53.6069mm" height="12.3512mm" version="1.1" style="shape-rendering:geometricPrecision; text-rendering:geometricPrecision; image-rendering:optimizeQuality; fill-rule:evenodd; clip-rule:evenodd"
viewBox="0 0 1842.22 424.45"
 xmlns:xlink="http://www.w3.org/1999/xlink"
 xmlns:xodm="http://www.corel.com/coreldraw/odm/2003">
 <defs>
  <style type="text/css">
   <![CDATA[
    .fil1 {fill:#49385C}
    .fil2 {fill:#61BDF2}
    .fil5 {fill:#F77481}
    .fil3 {fill:#FFBF57}
    .fil4 {fill:#FFD105}
    .fil0 {fill:#49385C;fill-rule:nonzero}
   ]]>
  </style>
 </defs>
 <g id="Layer_x0020_1">
  <metadata id="CorelCorpID_0Corel-Layer"/>
  <path class="fil0" d="M717.3 208.44l0 -96.61c0,-5.24 -0.6,-9.48 -1.81,-12.7 -1.21,-3.23 -3.04,-5.77 -5.45,-7.56 -8.42,-6.3 -25.22,-5.2 -35.09,-3.78 -4.82,0.69 -8.37,1.26 -10.59,1.67l0 118.09c0,9.65 -2.64,17.26 -7.87,22.69 -5.23,5.43 -12.2,8.17 -20.87,8.17 -8.47,0 -15.4,-2.74 -20.73,-8.17 -5.33,-5.43 -8.01,-13.01 -8.01,-22.69l0 -95.71c0,-5.24 -0.62,-9.5 -1.82,-12.7 -1.19,-3.21 -3.02,-5.75 -5.44,-7.56 -5.7,-4.28 -14.28,-4.84 -21.18,-4.84 -4.44,0 -9.08,0.35 -13.92,1.06 -4.84,0.7 -8.37,1.26 -10.59,1.67l0 119c0,10.86 1.88,20.84 5.6,29.8 3.71,8.96 9.12,16.64 16.18,22.99 16.31,14.68 38.45,19.82 59.9,19.82 12.7,0 24.1,-1.71 34.18,-5.14 19.1,-6.5 34.08,-18.81 41.9,-37.66 3.71,-8.96 5.59,-18.91 5.59,-29.8zm178.19 41.14l-48.4 -48.4 17.55 -15.13c4.44,-3.83 8.32,-7.21 11.65,-10.13 7.44,-6.54 14.37,-13.87 14.37,-24.35 0,-7.06 -3.18,-12.91 -9.53,-17.55 -6.35,-4.64 -14.77,-6.96 -25.26,-6.96l-52.04 53.25 0 -69.56c0,-7.31 -1.36,-15.01 -7.56,-19.66 -7.86,-5.89 -24.8,-4.97 -34.03,-3.48 -4.33,0.7 -7.62,1.36 -9.83,1.97l0 164.85c0,7.3 1.36,15.01 7.56,19.66 7.85,5.88 24.81,4.98 34.03,3.48 4.34,-0.7 7.62,-1.26 9.83,-1.66l0 -55.06 29.95 37.51c5.85,7.46 11.3,12.76 16.34,15.88 10.64,6.59 28.26,6.91 37.06,-2.88 4.54,-5.04 7.31,-12.3 8.32,-21.78zm75.63 26.32l0 -103.16c2.62,-1.21 5.8,-2.27 9.53,-3.18 7.52,-1.83 28.97,-3.51 38.71,-4.39 4.43,-0.4 8.77,-0.6 13.01,-0.6 1.21,-2.22 2.22,-4.69 3.02,-7.41 0.8,-2.72 1.21,-5.5 1.21,-8.32 0,-8.47 -2.83,-14.58 -8.47,-18.3 -5.65,-3.73 -13.31,-5.6 -22.99,-5.6 -23.82,0 -41.73,1.01 -63.51,10.74 -12.46,5.56 -21.93,13.36 -21.93,27.98l0 90.76c0,5.04 0.65,9.12 1.97,12.25 4.65,11.1 15.89,11.95 26.47,11.95 6.88,0 16.4,-0.75 22.99,-2.72zm145.04 -32.37c-7.46,0 -12.76,-1.26 -15.88,-3.78 -6.2,-5 -6.63,-14.81 0.76,-18.91 3.63,-2.01 8.28,-3.16 13.91,-3.63l21.78 -1.81 0 24.2c-2.01,1.21 -5.09,2.17 -9.22,2.87 -4.13,0.7 -7.92,1.06 -11.35,1.06zm-45.68 -112.54c-5.28,2.11 -9.13,4.89 -11.65,8.01 -2.52,3.12 -3.78,7.31 -3.78,12.56 0,4.03 0.91,7.91 2.72,11.65 1.81,3.73 4.03,6.51 6.66,8.32 5.85,-2.42 12.41,-4.44 19.66,-6.05 12.32,-2.73 33.19,-4.24 44.62,1.36 5.14,2.52 7.71,6.72 7.71,12.56l0 2.12 -39.63 4.23c-17.33,1.85 -30.16,6.46 -38.42,13.92 -8.26,7.46 -12.4,18.15 -12.4,32.07 0,15.51 6.08,28.6 19.21,37.21 14.54,9.54 33.92,12.1 50.97,12.1 23.8,0 42.26,-3.94 55.36,-11.8 4.03,-2.42 7.52,-5.3 10.44,-8.62 2.92,-3.32 4.39,-7.61 4.39,-12.86l0 -67.77c0,-9.48 -1.72,-17.7 -5.14,-24.66 -3.42,-6.96 -8.32,-12.71 -14.67,-17.24 -6.35,-4.54 -14.02,-7.92 -22.99,-10.13 -19.6,-4.84 -53.72,-4.71 -73.06,3.03zm271.37 101.34c0,-12.3 -4.09,-22.34 -12.25,-30.1 -8.16,-7.76 -21.93,-13.93 -41.29,-18.3 -5.45,-1.23 -16.81,-3.21 -20.87,-6.05 -5.33,-3.73 -3.32,-10.17 2.42,-12.56 3.63,-1.51 8.77,-2.27 15.43,-2.27 9.86,0 31.89,4.16 40.24,9.38 2.62,-2.22 4.79,-5 6.51,-8.32 11.53,-22.38 -11.64,-34.98 -30.25,-38.12 -22.04,-3.72 -50.27,-1.95 -69.13,11.04 -12.02,8.29 -18.45,20.83 -18.45,35.4 0,13.72 4.29,24.26 12.86,31.61 8.57,7.36 21.64,12.68 39.18,16.19 5.84,1.16 16.63,2.72 21.18,5.75 5.68,3.78 4.49,10.72 -1.36,13.91 -3.32,1.81 -8.12,2.72 -14.37,2.72 -9.88,0 -18.61,-1.26 -26.17,-3.78 -7.56,-2.52 -14.27,-5.4 -20.12,-8.62 -2.82,2.22 -5.24,5 -7.26,8.32 -8.49,13.99 0.25,28.93 13.46,35.4 12.18,5.97 28.78,7.41 42.2,7.41 22.39,0 39.33,-4.34 50.82,-13.01 11.49,-8.67 17.24,-20.67 17.24,-36zm77.45 43.57l0 -112.82c0,-5.04 -0.67,-9.14 -1.97,-12.25 -4.63,-11.1 -15.91,-11.95 -26.47,-11.95 -7.83,0 -15.32,1.32 -22.99,2.73l0 112.82c0,11.78 3.88,21.15 16.49,23.29 8,1.36 17.11,1.15 25.11,-0.15 4.33,-0.7 7.62,-1.26 9.83,-1.66zm105.28 -189.77l0 154.37c0,9.86 4.47,17.93 13.31,24.2 6.47,4.59 14.32,8.52 23.6,11.65 9.27,3.12 20.57,4.69 33.88,4.69 12.3,0 23.55,-1.67 33.73,-4.99 10.19,-3.33 18.81,-8.22 25.87,-14.67 7.06,-6.45 12.56,-14.57 16.49,-24.35 3.93,-9.78 5.9,-21.23 5.9,-34.34 0,-12.7 -1.92,-23.9 -5.75,-33.58 -11.1,-28.03 -36.24,-44.47 -66.25,-44.47 -5.44,0 -10.44,0.41 -14.97,1.21 -4.54,0.8 -9.33,2.22 -14.37,4.24l0 -22.78c0,-5.04 -0.6,-9.12 -1.81,-12.25 -1.21,-3.13 -3.03,-5.61 -5.45,-7.41 -2.41,-1.8 -5.4,-3.02 -8.92,-3.63 -3.53,-0.6 -7.51,-0.91 -11.95,-0.91 -4.64,0 -9.18,0.36 -13.61,1.06 -4.44,0.7 -7.66,1.36 -9.68,1.97zm70.79 154.37c-4.64,0 -8.52,-0.45 -11.65,-1.36 -3.13,-0.91 -5.8,-2.07 -8.02,-3.48l0 -65.95c3.43,-1.62 6.61,-2.83 9.53,-3.63 2.92,-0.8 6.4,-1.21 10.44,-1.21 8.88,0 15.94,3.13 21.18,9.38 5.24,6.25 7.87,15.73 7.87,28.44 0,12.51 -2.57,21.94 -7.71,28.29 -5.14,6.35 -12.35,9.53 -21.63,9.53zm178.79 -115.87c-11.29,0 -21.73,1.46 -31.31,4.39 -9.58,2.92 -17.85,7.37 -24.81,13.31 -6.95,5.95 -12.41,13.46 -16.33,22.54 -3.93,9.07 -5.9,19.77 -5.9,32.07 0,12.5 1.87,23.3 5.6,32.37 3.73,9.07 8.67,16.49 14.82,22.23 6.15,5.75 13.31,9.99 21.48,12.71 8.17,2.72 16.79,4.08 25.87,4.08 11.9,0 21.98,-1.81 30.25,-5.44l0 4.84c0,8.06 -3.23,13.92 -9.68,17.55 -6.45,3.63 -15.12,5.45 -26.01,5.45 -7.87,0 -15.49,-1.11 -22.84,-3.33 -7.36,-2.21 -13.97,-4.94 -19.82,-8.17 -2.42,1.82 -4.59,4.49 -6.51,8.02 -1.91,3.53 -2.87,7.62 -2.87,12.25 0,11.09 5.25,19.11 15.73,24.05 10.48,4.94 24.91,7.41 43.26,7.41 10.69,0 20.73,-1.21 30.1,-3.63 9.37,-2.42 17.55,-6.2 24.51,-11.34 6.96,-5.14 12.46,-11.6 16.49,-19.36 4.03,-7.76 6.05,-16.99 6.05,-27.68l0 -105.88c0,-5.45 -1.16,-9.89 -3.48,-13.31 -2.32,-3.43 -5.52,-6.53 -9.53,-9.38 -6.47,-4.6 -14.37,-8.42 -23.75,-11.35 -9.38,-2.92 -19.82,-4.39 -31.31,-4.39zm18.76 43.87l0 55.66c-4.84,3.84 -11.4,5.75 -19.66,5.75 -7.66,0 -13.97,-2.57 -18.91,-7.72 -4.94,-5.14 -7.41,-13.56 -7.41,-25.26 0,-10.29 2.47,-18.2 7.41,-23.75 4.94,-5.55 12.35,-8.32 22.24,-8.32 4.03,0 7.41,0.41 10.13,1.21 2.72,0.8 4.79,1.62 6.2,2.42z"/>
  <path class="fil0" d="M1442.89 246.02c0,8.47 2.63,15.53 7.87,21.18 5.24,5.64 12.4,8.47 21.48,8.47 9.08,0 16.24,-2.83 21.48,-8.47 5.24,-5.65 7.87,-12.71 7.87,-21.18 0,-8.47 -2.62,-15.53 -7.87,-21.18 -5.24,-5.65 -12.4,-8.47 -21.48,-8.47 -9.08,0 -16.24,2.83 -21.48,8.47 -5.24,5.64 -7.87,12.71 -7.87,21.18z"/>
  <g id="_2062392910880">
   <path class="fil1" d="M1384.63 72.59c-1.35,6.32 -5.5,16.21 -9.63,18.95 -5.03,3.33 -12.23,0.52 -16.28,-2.37 -1.3,-0.93 -3.08,-2.22 -4.3,-2.93 0.79,-2.25 2.29,-4.7 -0.19,-7.44 -1.73,-1.91 -4.75,-2.47 -7.31,-0.75 -4.01,2.69 -2.86,10.65 5.11,9.56l9.53 25.64 59.52 -7.1 2.95 -27.3c7.99,-0.85 7.26,-8.86 2.7,-10.51 -2.84,-1.03 -5.54,0.16 -6.8,2.26 -1.93,3.21 0.03,5.28 1.47,7.49 -3.42,3.2 -10.06,13.27 -18.72,10.08 -4.67,-1.72 -11.02,-10.29 -13.89,-16.09 0.42,-0.62 3.7,-2.57 2.46,-6.65 -1.75,-5.73 -10.29,-4.64 -10.6,1.29 -0.22,4.26 3.36,5.3 3.98,5.86z"/>
   <polygon class="fil1" points="1363.17,117.58 1366.36,125.87 1419.42,119.36 1420.38,110.58 "/>
  </g>
  <path class="fil2" d="M268.97 25.41c-0.16,-13.63 18.51,-4.57 14.21,-24.02 -19.2,-9.6 -55.34,33.31 -10.72,41.5 25.9,4.76 -2.89,16.72 -4.06,24.19 -3.63,23.25 45.24,-6.16 26.59,-30.76 -7.46,-9.85 -15.47,-5.84 -26.03,-10.91z"/>
  <path class="fil2" d="M193.53 271.69c-6.12,-2.39 -10.66,-2.78 -17.36,-8.97 -4.54,-4.2 -10.17,-12.03 -11.48,-17.54 5.23,0.66 11.94,5.34 16.62,9.26 3.58,3.01 12.83,11.65 12.22,17.25zm-56.42 70.11c-13.84,-16.8 -30.79,-26.92 -32.57,-57 -1.03,-17.46 11.5,-43.74 35.44,-43.75 1.04,3.29 1.26,6.33 2.17,10.13 6.41,26.77 35.13,52.39 61.79,29.34 16.23,-14.03 12.82,-27.24 -2.33,-41.47 -16.68,-15.67 -29.69,-13.94 -42.23,-16.89 -0.7,-3.38 -0.74,-6.15 -0.35,-9.57 1.18,-10.44 2.89,-18.99 7.26,-29.3 17.93,-42.31 74.36,-61.82 91.57,-108.19 1.07,-2.89 1.39,-2.76 1.05,-5.54 -4.76,-1.94 -15.13,0.17 -18.63,10.55 -2.45,7.28 -6.37,15.14 -11.86,21.79 -11.28,13.69 -28.94,26.55 -42.24,38.87 -24.58,22.78 -41.08,46.59 -45.87,79.19 -0.36,2.44 -0.1,3.57 -0.48,5.66 -13.66,8.1 -22.02,8.12 -37.91,27.26 -10.11,12.17 -16.1,26.09 -16.21,38.1 -0.11,11.87 1.16,24.94 12.33,38.44 5.34,6.45 12.38,12.16 19.28,13.77 5.64,1.32 14.26,3.45 19.79,-1.42z"/>
  <path class="fil3" d="M300.87 140.33c7.63,1.84 13.07,1.56 22,7.8 6.06,4.23 13.99,12.59 16.44,18.89 -6.29,0.07 -15,-4.37 -21.17,-8.26 -4.73,-2.98 -17.08,-11.7 -17.28,-18.43zm55.38 -92.17c19.12,17.64 40.83,26.85 47.82,62.17 4.06,20.5 -6.49,53.64 -34.83,57.54 -1.76,-3.72 -2.52,-7.29 -4.22,-11.64 -11.94,-30.65 -50.11,-56.29 -77.92,-24.67 -16.92,19.25 -10.74,34.33 9.51,48.7 22.3,15.83 37.41,11.66 52.74,13.11 1.37,3.89 1.87,7.16 1.97,11.27 0.31,12.54 -0.33,22.95 -3.82,35.86 -14.34,53.01 -77.96,85.27 -90.79,142.95 -0.8,3.59 -1.2,3.49 -0.34,6.73 5.95,1.52 17.89,-2.66 20.34,-15.52 1.72,-9.02 5.08,-18.96 10.49,-27.72 11.13,-18.03 29.94,-36.13 43.68,-52.88 25.39,-30.97 41.05,-61.83 41.42,-101.2 0.03,-2.95 -0.47,-4.25 -0.35,-6.78 14.86,-11.8 24.74,-13.2 40.44,-38.43 9.98,-16.04 14.8,-33.5 12.98,-47.74 -1.8,-14.06 -5.43,-29.32 -20.85,-43.49 -7.37,-6.77 -16.63,-12.38 -25.06,-13.17 -6.89,-0.64 -17.44,-1.77 -23.2,4.89z"/>
  <path class="fil1" d="M101.26 124.56c3.73,-0.18 17.51,-0.11 20.08,0.87 -7.77,47.74 -7.42,44.53 3.11,95.78 -4.03,-5.06 -9.86,-17.4 -12.77,-24.51 -8.19,-20.04 -13.45,-50.43 -10.43,-72.14zm207.69 12.35c-4.05,-16.06 -7.03,-28.9 -14.81,-43.93 -23.13,-44.68 -69.26,-75.55 -120.77,-65.38 -21.97,4.34 -42.51,15.52 -57.35,32.26 -13.09,14.77 -22.69,32.18 -27.39,53.21 -1.24,5.54 -3.11,17.41 -3.74,28.07 -1,16.79 2.15,33.88 6.75,49.97 3.75,13.12 8.21,23.61 16.23,36.68 12.76,20.78 31.52,41.75 50.3,56.36 2.84,2.21 6.62,5.6 9.58,7.47 16.32,10.33 33.08,21.99 53.68,24.18 0.61,0.07 0.93,0.06 1.47,0.16 1.96,0.36 -1.85,-0.52 0.93,0.22l0.89 0.32c-1.36,7.3 -3.56,14.99 -3.89,22.86 4.35,-1.8 6.19,-3 11.7,-3.85 5.23,3.77 8.37,10.62 11.54,17.57 4.46,9.78 4.31,13.35 1.25,21.86 -7.1,19.76 -18.07,36.55 -3.2,49.5l5.96 -1.24c-6.55,-3.92 -12.59,-8.59 -5.52,-28.67 6.33,-17.98 13.22,-24.92 6.53,-40.95 -1.98,-4.74 -9.73,-17.53 -10.27,-19.81l16.4 -2.31c-2.43,-3.96 -13.76,-14.13 -16.71,-18.19 8.8,-6.18 10.75,-6.02 19.47,-15.07 14.9,-15.46 28.61,-39.19 37.03,-59.19 10.76,-25.56 21.57,-67.06 13.94,-102.1zm-205.69 -20.64c0.18,-6.82 3.86,-16.32 5.79,-21.95l25.94 0.95c-0.93,3.09 -9.29,19.35 -10.94,22.01l-20.79 -1z"/>
  <path class="fil4" d="M51.49 143.54c-1.39,15.34 16.79,8.49 21.57,-8.96 3.83,-13.96 -4.01,-31.19 -12.99,-23.17 -6.4,5.72 3.48,10.48 -0.27,21.02 -2.16,6.08 -5.61,6.03 -8.32,11.1z"/>
  <path class="fil5" d="M291.64 303.96c-1.96,-19.33 -22.84,-6.49 -24.58,16.27 -1.39,18.21 12.45,37.66 21.64,25.57 6.55,-8.62 -6.82,-12.15 -4.71,-26.09 1.22,-8.04 5.51,-8.81 7.65,-15.75z"/>
  <path class="fil4" d="M173.57 168.34c1.16,1.61 2.13,2.3 4.02,2.6 6.35,0.93 14.53,2.58 21.2,3.25l5.63 0.87c0.18,0.04 0.86,1.22 1.81,3.03 1.2,2.43 10.26,21.11 10.84,21.9 0.02,0.04 0.05,0.07 0.08,0.11 0.34,0.53 0.75,1.02 1.41,1.54 1.71,1.35 4.7,1.5 6.55,0.5 2.31,-1.24 3.39,-4.26 4.61,-6.78l9.21 -18.59c0.61,-1.16 0.68,-1.52 0.91,-1.68 5.79,-0.51 12.74,-1.9 18.65,-2.71 1.28,-0.21 8.1,-1.08 8.67,-1.36 1.69,-0.41 3.71,-2.05 4.24,-3.75 0.01,-0.02 0.02,-0.04 0.03,-0.06 0.57,-1.78 0.63,-3.04 -0.12,-4.85 -0.92,-2.25 -17.51,-17.75 -19.93,-20.13 -0.08,-0.08 -0.15,-0.15 -0.23,-0.22l-0.31 -0.31c-0.5,-0.59 3.67,-22.02 4.23,-25.51 0.26,-1.65 0.58,-2.62 0.11,-4.29 -0.34,-1.25 -1.3,-2.42 -2.46,-3.23 -1.9,-1.33 -4.47,-1.62 -6.56,-0.54 -6.26,3.32 -14.83,7.25 -20.75,10.98 -0.68,0.43 -2.29,1.12 -3.11,1.59 -0.61,-0.37 -1.99,-1.05 -2.49,-1.31 -6.57,-3.48 -13.15,-6.94 -19.71,-10.45 -1.03,-0.54 -2.59,-1.48 -3.79,-1.54 -1.57,-0.08 -2.99,0.25 -4.14,0.95 -3.61,2.6 -3.26,5.25 -2.68,9.13 1.1,7.38 2.52,14.86 3.77,22.23 0.3,1.98 0.52,1.71 -0.15,2.38 -6.33,6.18 -12.73,12.3 -19.06,18.47 -1.42,1.39 -1.9,3.47 -1.51,5.38 0.03,0.22 0.1,0.46 0.19,0.72 0.19,0.58 0.47,1.13 0.83,1.63z"/>
  <path class="fil1" d="M279.86 25.83c0.02,1.19 0.26,1.86 1.09,2.65 2.81,2.62 6.27,6.21 9.33,8.81l2.47 2.34c0.07,0.09 0.01,0.9 -0.14,2.11 -0.24,1.6 -2.13,13.88 -2.12,14.47 0,0.03 0,0.05 0,0.08 -0.01,0.38 0.02,0.76 0.17,1.24 0.38,1.25 1.8,2.34 3.06,2.48 1.56,0.18 3.12,-0.95 4.58,-1.77l10.86 -6.02c0.69,-0.36 0.85,-0.52 1.02,-0.52 3.02,1.72 6.92,3.4 10.1,5.01 0.7,0.33 4.35,2.23 4.74,2.28 0.97,0.37 2.52,0.25 3.36,-0.4 0.01,-0.01 0.02,-0.02 0.03,-0.02 0.89,-0.68 1.34,-1.29 1.59,-2.43 0.31,-1.43 -2.58,-14.7 -2.96,-16.69 -0.01,-0.07 -0.02,-0.13 -0.04,-0.19l-0.05 -0.25c-0.04,-0.46 9.3,-9.59 10.77,-11.12 0.69,-0.73 1.17,-1.09 1.52,-2.07 0.25,-0.73 0.18,-1.64 -0.11,-2.43 -0.49,-1.3 -1.65,-2.32 -3.04,-2.5 -4.21,-0.49 -9.77,-1.47 -13.95,-1.65 -0.48,-0.02 -1.51,-0.23 -2.07,-0.28 -0.18,-0.39 -0.62,-1.19 -0.78,-1.49 -2.04,-3.95 -4.11,-7.89 -6.14,-11.85 -0.32,-0.62 -0.77,-1.61 -1.34,-2.04 -0.75,-0.57 -1.56,-0.9 -2.36,-0.94 -2.66,0.05 -3.39,1.47 -4.43,3.58 -1.97,4 -3.82,8.17 -5.71,12.23 -0.53,1.08 -0.33,1.02 -0.89,1.12 -5.22,0.89 -10.45,1.72 -15.67,2.61 -1.17,0.2 -2.12,1.06 -2.58,2.13 -0.06,0.12 -0.11,0.26 -0.15,0.42 -0.1,0.35 -0.15,0.72 -0.15,1.09z"/>
  <path class="fil3" d="M152.47 285.13c-0.33,1.04 -0.32,1.69 0.18,2.62 1.68,3.1 3.64,7.24 5.53,10.39l1.47 2.76c0.04,0.1 -0.25,0.78 -0.74,1.79 -0.67,1.33 -5.91,11.45 -6.07,11.97 -0.01,0.02 -0.01,0.04 -0.02,0.07 -0.12,0.32 -0.2,0.67 -0.22,1.12 -0.03,1.2 0.89,2.56 1.93,3.05 1.31,0.61 2.99,0.09 4.49,-0.2l11.2 -2.06c0.71,-0.11 0.89,-0.2 1.04,-0.15 2.12,2.38 5.02,4.98 7.32,7.31 0.51,0.49 3.13,3.21 3.45,3.37 0.74,0.61 2.12,0.96 3.04,0.64 0.01,-0 0.02,-0.01 0.03,-0.01 0.97,-0.33 1.54,-0.73 2.09,-1.64 0.69,-1.15 2.06,-13.53 2.3,-15.38 0.01,-0.06 0.01,-0.12 0.02,-0.17l0.03 -0.23c0.1,-0.42 10.89,-5.62 12.61,-6.52 0.81,-0.43 1.34,-0.6 1.92,-1.36 0.44,-0.56 0.64,-1.37 0.61,-2.14 -0.04,-1.27 -0.76,-2.5 -1.92,-3.06 -3.52,-1.66 -8.06,-4.14 -11.65,-5.52 -0.41,-0.16 -1.25,-0.64 -1.72,-0.85 -0.04,-0.38 -0.19,-1.22 -0.24,-1.52 -0.63,-4.03 -1.27,-8.06 -1.88,-12.1 -0.1,-0.63 -0.2,-1.63 -0.57,-2.17 -0.48,-0.72 -1.09,-1.23 -1.78,-1.51 -2.33,-0.73 -3.38,0.29 -4.9,1.82 -2.88,2.91 -5.71,5.99 -8.54,8.96 -0.78,0.78 -0.58,0.79 -1.1,0.71 -4.8,-0.75 -9.59,-1.55 -14.39,-2.31 -1.08,-0.17 -2.15,0.31 -2.86,1.1 -0.09,0.09 -0.17,0.2 -0.25,0.32 -0.2,0.28 -0.35,0.58 -0.45,0.9z"/>
  <circle class="fil5" cx="95.61" cy="28.63" r="21.69"/>
  <circle class="fil5" cx="165.76" cy="249.51" r="8.62"/>
  <circle class="fil5" cx="76.7" cy="270.15" r="6.67"/>
  <circle class="fil2" cx="332.83" cy="280.31" r="19.19"/>
  <path class="fil3" d="M0.58 204.25c0.61,0.9 1.13,1.3 2.16,1.49 3.47,0.61 7.93,1.64 11.58,2.12l3.07 0.57c0.1,0.03 0.45,0.68 0.95,1.69 0.62,1.35 5.3,11.74 5.61,12.19 0.01,0.02 0.03,0.04 0.04,0.06 0.18,0.3 0.4,0.57 0.75,0.87 0.92,0.77 2.56,0.9 3.59,0.38 1.29,-0.65 1.92,-2.29 2.63,-3.65l5.34 -10.06c0.35,-0.63 0.4,-0.82 0.53,-0.9 3.19,-0.19 7.02,-0.84 10.28,-1.2 0.71,-0.1 4.46,-0.46 4.78,-0.61 0.93,-0.2 2.07,-1.07 2.38,-1.99 0.01,-0.01 0.01,-0.02 0.02,-0.03 0.34,-0.97 0.39,-1.66 0.01,-2.66 -0.47,-1.25 -9.33,-10.02 -10.62,-11.36 -0.04,-0.04 -0.08,-0.08 -0.12,-0.12l-0.16 -0.17c-0.27,-0.33 2.36,-12.02 2.72,-13.93 0.17,-0.9 0.36,-1.43 0.13,-2.35 -0.17,-0.69 -0.68,-1.35 -1.3,-1.81 -1.02,-0.76 -2.43,-0.96 -3.59,-0.4 -3.49,1.73 -8.25,3.75 -11.55,5.7 -0.38,0.23 -1.27,0.58 -1.73,0.82 -0.33,-0.21 -1.08,-0.6 -1.35,-0.76 -3.55,-2.02 -7.11,-4.01 -10.65,-6.04 -0.56,-0.31 -1.4,-0.86 -2.06,-0.9 -0.86,-0.07 -1.64,0.09 -2.29,0.46 -2.02,1.37 -1.87,2.83 -1.62,4.97 0.48,4.07 1.15,8.2 1.72,12.26 0.13,1.09 0.26,0.95 -0.12,1.31 -3.57,3.29 -7.18,6.55 -10.75,9.84 -0.8,0.74 -1.1,1.88 -0.91,2.93 0.01,0.12 0.04,0.25 0.09,0.4 0.1,0.32 0.24,0.63 0.43,0.91z"/>
  <path class="fil4" d="M352.26 106.32c13.99,-1.41 4.7,-16.53 -11.77,-17.79 -13.18,-1.01 -27.27,9 -18.52,15.66 6.24,4.75 8.8,-4.93 18.89,-3.4 5.82,0.89 6.38,3.99 11.4,5.54z"/>
  <path class="fil1" d="M65.34 30.8c0.01,0.56 0.12,0.87 0.51,1.24 1.31,1.22 2.93,2.9 4.35,4.11l1.15 1.09c0.03,0.04 0,0.42 -0.07,0.98 -0.11,0.75 -1,6.48 -0.99,6.75 0,0.01 0,0.02 0,0.04 -0.01,0.18 0.01,0.35 0.08,0.58 0.18,0.58 0.84,1.09 1.43,1.15 0.73,0.08 1.45,-0.44 2.13,-0.82l5.07 -2.81c0.33,-0.17 0.4,-0.24 0.48,-0.24 1.41,0.8 3.23,1.59 4.71,2.34 0.33,0.15 2.03,1.04 2.21,1.07 0.45,0.18 1.18,0.12 1.57,-0.19 0,-0 0.01,-0.01 0.01,-0.01 0.42,-0.32 0.63,-0.6 0.75,-1.13 0.14,-0.67 -1.2,-6.86 -1.38,-7.79 -0.01,-0.03 -0.01,-0.06 -0.02,-0.09l-0.02 -0.12c-0.02,-0.22 4.34,-4.47 5.02,-5.19 0.32,-0.34 0.55,-0.51 0.71,-0.97 0.12,-0.34 0.09,-0.76 -0.05,-1.13 -0.23,-0.6 -0.77,-1.08 -1.42,-1.16 -1.97,-0.23 -4.56,-0.69 -6.51,-0.77 -0.23,-0.01 -0.71,-0.11 -0.97,-0.13 -0.08,-0.18 -0.29,-0.56 -0.36,-0.69 -0.96,-1.84 -1.92,-3.68 -2.87,-5.53 -0.15,-0.29 -0.36,-0.75 -0.63,-0.96 -0.35,-0.26 -0.73,-0.42 -1.1,-0.44 -1.24,0.02 -1.58,0.69 -2.07,1.67 -0.92,1.87 -1.78,3.81 -2.66,5.7 -0.25,0.5 -0.15,0.47 -0.41,0.52 -2.44,0.42 -4.88,0.8 -7.31,1.22 -0.55,0.09 -0.99,0.5 -1.2,1 -0.03,0.05 -0.05,0.12 -0.07,0.2 -0.05,0.16 -0.07,0.34 -0.07,0.51z"/>
 </g>
</svg>
